<svg xmlns="http://www.w3.org/2000/svg" viewBox="0 0 576 512"><path d="M488 32H88C39.47 32 0 71.47 0 120v208c0 48.5 39.47 88 88 88 13.25 0 24-10.75 24-24s-10.7-24-24-24c-22.06 0-40-17.94-40-40V120c0-22.06 17.94-40 40-40h400c22.06 0 40 17.94 40 40v208c0 22.06-17.94 40-40 40-13.25 0-24 10.75-24 24s10.8 24 24 24c48.53 0 88-39.47 88-88V120c0-48.53-39.5-88-88-88zM321.9 286.1c-18.62-18.75-49.13-18.75-67.88 0l-112 112C112 428.2 133.3 480 176 480h223.9c42.63 0 64.25-51.77 33.88-81.9l-111.88-112zM176 431.1l111.1-112 112 112H176z"/></svg>