<svg xmlns="http://www.w3.org/2000/svg" viewBox="0 0 34 32"><path d="M27.814 28.814a1.5 1.5 0 0 1-1.061-2.56C29.492 23.515 31 19.874 31 16.001s-1.508-7.514-4.247-10.253a1.5 1.5 0 1 1 2.121-2.121C32.179 6.932 34 11.327 34 16.001s-1.82 9.069-5.126 12.374a1.495 1.495 0 0 1-1.061.439zm-5.329-2.829a1.5 1.5 0 0 1-1.061-2.56c4.094-4.094 4.094-10.755 0-14.849a1.5 1.5 0 1 1 2.121-2.121c2.55 2.55 3.954 5.94 3.954 9.546s-1.404 6.996-3.954 9.546a1.495 1.495 0 0 1-1.061.439zm-5.328-2.828a1.5 1.5 0 0 1-1.061-2.56 6.508 6.508 0 0 0 0-9.192 1.5 1.5 0 1 1 2.121-2.121c3.704 3.704 3.704 9.731 0 13.435a1.495 1.495 0 0 1-1.061.439zM13 30a1 1 0 0 1-.707-.293L4.586 22H1a1 1 0 0 1-1-1V11a1 1 0 0 1 1-1h3.586l7.707-7.707A1 1 0 0 1 14 3v26a1.002 1.002 0 0 1-1 1z"/></svg>