<svg xmlns="http://www.w3.org/2000/svg" viewBox="0 0 162 162"><linearGradient id="a" gradientUnits="userSpaceOnUse" x1="13.493" y1="139.166" x2="136.155" y2="33.408"><stop offset="0" stop-color="#e94900"/><stop offset=".996" stop-color="#ffb100"/></linearGradient><path d="M109.5 162H0V52.4C0 23.5 23.5 0 52.4 0H162v109.5c0 29-23.5 52.5-52.5 52.5z" fill="url(#a)"/><linearGradient id="b" gradientUnits="userSpaceOnUse" x1="100.079" y1="72.277" x2="83.67" y2="117.005"><stop offset="0" stop-color="#e9ed80"/><stop offset="1" stop-color="#ff9800"/></linearGradient><path d="M93 122.3l31.3-82.6H117c-9.8 0-18.7 6.1-22.2 15.3l-17.1 45.1c-4.1 10.7 3.8 22.2 15.3 22.2z" fill="url(#b)"/><linearGradient id="c" gradientUnits="userSpaceOnUse" x1="59.876" y1="65.162" x2="77.705" y2="117.15"><stop offset="0" stop-color="#e9ed80"/><stop offset="1" stop-color="#ffcd00"/></linearGradient><path d="M92.8 122.3h-5.3c-11.1 0-21-6.8-24.9-17.2L37.8 39.7h7.3c9.8 0 18.7 6.1 22.2 15.3l25.5 67.3z" fill="url(#c)"/></svg>